<mxfile host="Electron" agent="Mozilla/5.0 (Windows NT 10.0; Win64; x64) AppleWebKit/537.36 (KHTML, like Gecko) draw.io/24.7.17 Chrome/128.0.6613.36 Electron/32.0.1 Safari/537.36" version="24.7.17">
  <diagram name="Pagina-1" id="ARcLuR35aFCJksdJcQaz">
    <mxGraphModel dx="979" dy="567" grid="1" gridSize="10" guides="1" tooltips="1" connect="1" arrows="1" fold="1" page="1" pageScale="1" pageWidth="827" pageHeight="1169" math="1" shadow="0">
      <root>
        <mxCell id="0" />
        <mxCell id="1" parent="0" />
        <mxCell id="p1LDyjj_kxZU4XopFUPf-37" value="" style="rounded=0;whiteSpace=wrap;html=1;fillColor=none;dashed=1;dashPattern=12 12;" vertex="1" parent="1">
          <mxGeometry x="130" y="190" width="570" height="460" as="geometry" />
        </mxCell>
        <mxCell id="p1LDyjj_kxZU4XopFUPf-38" style="edgeStyle=orthogonalEdgeStyle;rounded=0;orthogonalLoop=1;jettySize=auto;html=1;entryX=0;entryY=0.5;entryDx=0;entryDy=0;fillColor=#fad9d5;strokeColor=#ae4132;" edge="1" parent="1" source="p1LDyjj_kxZU4XopFUPf-39" target="p1LDyjj_kxZU4XopFUPf-61">
          <mxGeometry relative="1" as="geometry">
            <Array as="points">
              <mxPoint x="580" y="240" />
              <mxPoint x="580" y="355" />
            </Array>
          </mxGeometry>
        </mxCell>
        <mxCell id="p1LDyjj_kxZU4XopFUPf-39" value="\(K_p\)&amp;nbsp; &amp;nbsp; &amp;nbsp;" style="triangle;whiteSpace=wrap;html=1;fillColor=none;fontSize=14;" vertex="1" parent="1">
          <mxGeometry x="280" y="200" width="80" height="80" as="geometry" />
        </mxCell>
        <mxCell id="p1LDyjj_kxZU4XopFUPf-40" value="\(K_p\frac{T_C}{T_i}\)&amp;nbsp; &amp;nbsp; &amp;nbsp; &amp;nbsp;" style="triangle;whiteSpace=wrap;html=1;fillColor=none;fontSize=14;" vertex="1" parent="1">
          <mxGeometry x="280" y="310" width="80" height="80" as="geometry" />
        </mxCell>
        <mxCell id="p1LDyjj_kxZU4XopFUPf-41" style="edgeStyle=orthogonalEdgeStyle;rounded=0;orthogonalLoop=1;jettySize=auto;html=1;entryX=0;entryY=0.5;entryDx=0;entryDy=0;fillColor=#b1ddf0;strokeColor=#111B9E;" edge="1" parent="1" source="p1LDyjj_kxZU4XopFUPf-42" target="p1LDyjj_kxZU4XopFUPf-57">
          <mxGeometry relative="1" as="geometry" />
        </mxCell>
        <mxCell id="p1LDyjj_kxZU4XopFUPf-42" value="" style="rounded=0;whiteSpace=wrap;html=1;fillColor=none;" vertex="1" parent="1">
          <mxGeometry x="389" y="330" width="50" height="100" as="geometry" />
        </mxCell>
        <mxCell id="p1LDyjj_kxZU4XopFUPf-43" style="edgeStyle=orthogonalEdgeStyle;rounded=0;orthogonalLoop=1;jettySize=auto;html=1;entryX=0.023;entryY=0.2;entryDx=0;entryDy=0;entryPerimeter=0;fillColor=#b1ddf0;strokeColor=#111B9E;" edge="1" parent="1" source="p1LDyjj_kxZU4XopFUPf-40" target="p1LDyjj_kxZU4XopFUPf-42">
          <mxGeometry relative="1" as="geometry" />
        </mxCell>
        <mxCell id="p1LDyjj_kxZU4XopFUPf-44" value="\(K_p\frac{T_d}{T_C}\)&amp;nbsp; &amp;nbsp;" style="triangle;whiteSpace=wrap;html=1;fillColor=none;fontSize=14;" vertex="1" parent="1">
          <mxGeometry x="280" y="460" width="80" height="80" as="geometry" />
        </mxCell>
        <mxCell id="p1LDyjj_kxZU4XopFUPf-45" value="\(K_p\frac{T_d}{T_C}\)&amp;nbsp; &amp;nbsp; &amp;nbsp; &amp;nbsp;" style="triangle;whiteSpace=wrap;html=1;fillColor=none;fontSize=14;" vertex="1" parent="1">
          <mxGeometry x="280" y="560" width="80" height="80" as="geometry" />
        </mxCell>
        <mxCell id="p1LDyjj_kxZU4XopFUPf-46" style="edgeStyle=orthogonalEdgeStyle;rounded=0;orthogonalLoop=1;jettySize=auto;html=1;entryX=0;entryY=0.5;entryDx=0;entryDy=0;fillColor=#d5e8d4;strokeColor=#047300;gradientColor=#97d077;" edge="1" parent="1" source="p1LDyjj_kxZU4XopFUPf-47" target="p1LDyjj_kxZU4XopFUPf-45">
          <mxGeometry relative="1" as="geometry" />
        </mxCell>
        <mxCell id="p1LDyjj_kxZU4XopFUPf-47" value="\(z^{-1}\)" style="whiteSpace=wrap;html=1;aspect=fixed;fillColor=none;" vertex="1" parent="1">
          <mxGeometry x="200" y="580" width="40" height="40" as="geometry" />
        </mxCell>
        <mxCell id="p1LDyjj_kxZU4XopFUPf-48" style="edgeStyle=orthogonalEdgeStyle;rounded=0;orthogonalLoop=1;jettySize=auto;html=1;entryX=0;entryY=0.5;entryDx=0;entryDy=0;fillColor=#d5e8d4;strokeColor=#047300;gradientColor=#97d077;" edge="1" parent="1" source="p1LDyjj_kxZU4XopFUPf-49" target="p1LDyjj_kxZU4XopFUPf-62">
          <mxGeometry relative="1" as="geometry" />
        </mxCell>
        <mxCell id="p1LDyjj_kxZU4XopFUPf-49" value="" style="rounded=0;whiteSpace=wrap;html=1;fillColor=none;" vertex="1" parent="1">
          <mxGeometry x="389" y="480" width="50" height="140" as="geometry" />
        </mxCell>
        <mxCell id="p1LDyjj_kxZU4XopFUPf-50" style="edgeStyle=orthogonalEdgeStyle;rounded=0;orthogonalLoop=1;jettySize=auto;html=1;fillColor=#d5e8d4;strokeColor=#047300;gradientColor=#97d077;" edge="1" parent="1" source="p1LDyjj_kxZU4XopFUPf-45">
          <mxGeometry relative="1" as="geometry">
            <mxPoint x="390" y="600" as="targetPoint" />
          </mxGeometry>
        </mxCell>
        <mxCell id="p1LDyjj_kxZU4XopFUPf-51" style="edgeStyle=orthogonalEdgeStyle;rounded=0;orthogonalLoop=1;jettySize=auto;html=1;entryX=0.005;entryY=0.142;entryDx=0;entryDy=0;entryPerimeter=0;fillColor=#d5e8d4;strokeColor=#047300;gradientColor=#97d077;" edge="1" parent="1" source="p1LDyjj_kxZU4XopFUPf-44" target="p1LDyjj_kxZU4XopFUPf-49">
          <mxGeometry relative="1" as="geometry" />
        </mxCell>
        <mxCell id="p1LDyjj_kxZU4XopFUPf-52" value="\(-\)" style="text;html=1;align=center;verticalAlign=middle;whiteSpace=wrap;rounded=0;" vertex="1" parent="1">
          <mxGeometry x="379" y="585" width="60" height="30" as="geometry" />
        </mxCell>
        <mxCell id="p1LDyjj_kxZU4XopFUPf-53" value="\(+\)" style="text;html=1;align=center;verticalAlign=middle;whiteSpace=wrap;rounded=0;" vertex="1" parent="1">
          <mxGeometry x="379" y="485" width="60" height="30" as="geometry" />
        </mxCell>
        <mxCell id="p1LDyjj_kxZU4XopFUPf-54" value="\(+\)" style="text;html=1;align=center;verticalAlign=middle;whiteSpace=wrap;rounded=0;" vertex="1" parent="1">
          <mxGeometry x="379" y="335" width="60" height="30" as="geometry" />
        </mxCell>
        <mxCell id="p1LDyjj_kxZU4XopFUPf-55" value="\(+\)" style="text;html=1;align=center;verticalAlign=middle;whiteSpace=wrap;rounded=0;" vertex="1" parent="1">
          <mxGeometry x="384.5" y="400" width="49" height="30" as="geometry" />
        </mxCell>
        <mxCell id="p1LDyjj_kxZU4XopFUPf-56" style="edgeStyle=orthogonalEdgeStyle;rounded=0;orthogonalLoop=1;jettySize=auto;html=1;entryX=0.01;entryY=0.793;entryDx=0;entryDy=0;entryPerimeter=0;fillColor=#b1ddf0;strokeColor=#111B9E;" edge="1" parent="1" source="p1LDyjj_kxZU4XopFUPf-57" target="p1LDyjj_kxZU4XopFUPf-42">
          <mxGeometry relative="1" as="geometry">
            <Array as="points">
              <mxPoint x="540" y="380" />
              <mxPoint x="540" y="450" />
              <mxPoint x="359" y="450" />
              <mxPoint x="359" y="410" />
              <mxPoint x="389" y="410" />
            </Array>
          </mxGeometry>
        </mxCell>
        <mxCell id="p1LDyjj_kxZU4XopFUPf-57" value="\(z^{-1}\)" style="whiteSpace=wrap;html=1;aspect=fixed;fillColor=none;" vertex="1" parent="1">
          <mxGeometry x="480" y="360" width="40" height="40" as="geometry" />
        </mxCell>
        <mxCell id="p1LDyjj_kxZU4XopFUPf-58" value="\(u_{i,k}\)" style="text;html=1;align=center;verticalAlign=middle;whiteSpace=wrap;rounded=0;" vertex="1" parent="1">
          <mxGeometry x="439" y="385" width="41" height="20" as="geometry" />
        </mxCell>
        <mxCell id="p1LDyjj_kxZU4XopFUPf-59" style="edgeStyle=orthogonalEdgeStyle;rounded=0;orthogonalLoop=1;jettySize=auto;html=1;" edge="1" parent="1" source="p1LDyjj_kxZU4XopFUPf-60">
          <mxGeometry relative="1" as="geometry">
            <mxPoint x="759.9999999999998" y="409.9999999999999" as="targetPoint" />
          </mxGeometry>
        </mxCell>
        <mxCell id="p1LDyjj_kxZU4XopFUPf-60" value="" style="rounded=0;whiteSpace=wrap;html=1;fillColor=none;" vertex="1" parent="1">
          <mxGeometry x="610" y="340" width="50" height="140" as="geometry" />
        </mxCell>
        <mxCell id="p1LDyjj_kxZU4XopFUPf-61" value="\(+\)" style="text;html=1;align=center;verticalAlign=middle;whiteSpace=wrap;rounded=0;" vertex="1" parent="1">
          <mxGeometry x="610" y="340" width="50" height="30" as="geometry" />
        </mxCell>
        <mxCell id="p1LDyjj_kxZU4XopFUPf-62" value="\(+\)" style="text;html=1;align=center;verticalAlign=middle;whiteSpace=wrap;rounded=0;" vertex="1" parent="1">
          <mxGeometry x="610" y="450" width="50" height="30" as="geometry" />
        </mxCell>
        <mxCell id="p1LDyjj_kxZU4XopFUPf-63" value="\(+\)" style="text;html=1;align=center;verticalAlign=middle;whiteSpace=wrap;rounded=0;" vertex="1" parent="1">
          <mxGeometry x="610" y="395" width="50" height="30" as="geometry" />
        </mxCell>
        <mxCell id="p1LDyjj_kxZU4XopFUPf-64" value="" style="endArrow=classic;html=1;rounded=0;entryX=0;entryY=0.5;entryDx=0;entryDy=0;fillColor=#b1ddf0;strokeColor=#111B9E;" edge="1" parent="1" target="p1LDyjj_kxZU4XopFUPf-60">
          <mxGeometry width="50" height="50" relative="1" as="geometry">
            <mxPoint x="450" y="380" as="sourcePoint" />
            <mxPoint x="500" y="330" as="targetPoint" />
            <Array as="points">
              <mxPoint x="450" y="340" />
              <mxPoint x="560" y="340" />
              <mxPoint x="560" y="410" />
            </Array>
          </mxGeometry>
        </mxCell>
        <mxCell id="p1LDyjj_kxZU4XopFUPf-65" value="\(e_k\)" style="text;html=1;align=center;verticalAlign=middle;whiteSpace=wrap;rounded=0;fontSize=27;" vertex="1" parent="1">
          <mxGeometry x="60" y="390" width="50" height="40" as="geometry" />
        </mxCell>
        <mxCell id="p1LDyjj_kxZU4XopFUPf-66" value="\(u_k\)" style="text;html=1;align=center;verticalAlign=middle;whiteSpace=wrap;rounded=0;fontSize=27;" vertex="1" parent="1">
          <mxGeometry x="740" y="360" width="50" height="40" as="geometry" />
        </mxCell>
        <mxCell id="p1LDyjj_kxZU4XopFUPf-67" value="" style="endArrow=none;html=1;rounded=0;" edge="1" parent="1">
          <mxGeometry width="50" height="50" relative="1" as="geometry">
            <mxPoint x="100" y="415" as="sourcePoint" />
            <mxPoint x="160" y="415" as="targetPoint" />
          </mxGeometry>
        </mxCell>
        <mxCell id="p1LDyjj_kxZU4XopFUPf-68" value="" style="endArrow=none;html=1;rounded=0;" edge="1" parent="1">
          <mxGeometry width="50" height="50" relative="1" as="geometry">
            <mxPoint x="160" y="600" as="sourcePoint" />
            <mxPoint x="160" y="239.66" as="targetPoint" />
          </mxGeometry>
        </mxCell>
        <mxCell id="p1LDyjj_kxZU4XopFUPf-69" value="" style="endArrow=classic;html=1;rounded=0;entryX=0;entryY=0.5;entryDx=0;entryDy=0;fillColor=#fad9d5;strokeColor=#ae4132;" edge="1" parent="1" target="p1LDyjj_kxZU4XopFUPf-39">
          <mxGeometry width="50" height="50" relative="1" as="geometry">
            <mxPoint x="160" y="240" as="sourcePoint" />
            <mxPoint x="210" y="190" as="targetPoint" />
          </mxGeometry>
        </mxCell>
        <mxCell id="p1LDyjj_kxZU4XopFUPf-70" value="" style="endArrow=classic;html=1;rounded=0;entryX=0;entryY=0.5;entryDx=0;entryDy=0;fillColor=#b1ddf0;strokeColor=#111B9E;" edge="1" parent="1">
          <mxGeometry width="50" height="50" relative="1" as="geometry">
            <mxPoint x="160" y="349.65999999999997" as="sourcePoint" />
            <mxPoint x="280" y="349.65999999999997" as="targetPoint" />
          </mxGeometry>
        </mxCell>
        <mxCell id="p1LDyjj_kxZU4XopFUPf-71" value="" style="endArrow=classic;html=1;rounded=0;entryX=0;entryY=0.5;entryDx=0;entryDy=0;fillColor=#d5e8d4;strokeColor=#047300;gradientColor=#97d077;" edge="1" parent="1">
          <mxGeometry width="50" height="50" relative="1" as="geometry">
            <mxPoint x="160" y="499.65999999999997" as="sourcePoint" />
            <mxPoint x="280" y="499.65999999999997" as="targetPoint" />
          </mxGeometry>
        </mxCell>
        <mxCell id="p1LDyjj_kxZU4XopFUPf-72" style="edgeStyle=orthogonalEdgeStyle;rounded=0;orthogonalLoop=1;jettySize=auto;html=1;entryX=0;entryY=0.5;entryDx=0;entryDy=0;fillColor=#d5e8d4;strokeColor=#047300;gradientColor=#97d077;" edge="1" parent="1">
          <mxGeometry relative="1" as="geometry">
            <mxPoint x="160" y="599.75" as="sourcePoint" />
            <mxPoint x="200" y="599.75" as="targetPoint" />
            <Array as="points">
              <mxPoint x="180" y="600" />
              <mxPoint x="180" y="600" />
            </Array>
          </mxGeometry>
        </mxCell>
        <mxCell id="p1LDyjj_kxZU4XopFUPf-73" value="schema controllore PID digitale (forma di posizione)" style="text;html=1;align=center;verticalAlign=middle;whiteSpace=wrap;rounded=0;fontSize=27;fontFamily=Times New Roman;" vertex="1" parent="1">
          <mxGeometry x="80" y="660" width="690" height="40" as="geometry" />
        </mxCell>
      </root>
    </mxGraphModel>
  </diagram>
</mxfile>
